<svg xmlns="http://www.w3.org/2000/svg" xmlns:xlink="http://www.w3.org/1999/xlink" width="747" zoomAndPan="magnify" viewBox="0 0 560.25 39.749999" height="53" preserveAspectRatio="xMidYMid meet" version="1.0"><defs><clipPath id="2213c9ded0"><path d="M 4 1 L 554.925781 1 L 554.925781 37.933594 L 4 37.933594 Z M 4 1 " clip-rule="nonzero"/></clipPath><clipPath id="970c2b00a1"><path d="M 23.699219 -81.566406 L 556.335938 15.570312 L 534.6875 134.273438 L 2.054688 37.136719 Z M 23.699219 -81.566406 " clip-rule="nonzero"/></clipPath><clipPath id="d4efb0cc18"><path d="M 23.699219 -81.566406 L 556.335938 15.570312 L 534.6875 134.273438 L 2.054688 37.136719 Z M 23.699219 -81.566406 " clip-rule="nonzero"/></clipPath><clipPath id="c148ba0616"><path d="M 3.710938 0.773438 L 554.925781 0.773438 L 554.925781 37.933594 L 3.710938 37.933594 Z M 3.710938 0.773438 " clip-rule="nonzero"/></clipPath><clipPath id="0da9d20052"><path d="M 23.261719 -81.707031 L 555.894531 15.429688 L 534.25 134.128906 L 1.613281 36.996094 Z M 23.261719 -81.707031 " clip-rule="nonzero"/></clipPath><clipPath id="22ec70090b"><path d="M 23.261719 -81.707031 L 555.894531 15.429688 L 534.25 134.128906 L 1.613281 36.996094 Z M 23.261719 -81.707031 " clip-rule="nonzero"/></clipPath><clipPath id="95ac5bc30c"><path d="M 4 1 L 554.925781 1 L 554.925781 37.933594 L 4 37.933594 Z M 4 1 " clip-rule="nonzero"/></clipPath><clipPath id="e35678aec3"><path d="M 23.699219 -81.566406 L 556.335938 15.570312 L 534.6875 134.273438 L 2.054688 37.136719 Z M 23.699219 -81.566406 " clip-rule="nonzero"/></clipPath><clipPath id="7d8d004c28"><path d="M 23.699219 -81.566406 L 556.335938 15.570312 L 534.6875 134.273438 L 2.054688 37.136719 Z M 23.699219 -81.566406 " clip-rule="nonzero"/></clipPath><clipPath id="f93bf4948c"><path d="M 3.710938 0.773438 L 554.925781 0.773438 L 554.925781 37.933594 L 3.710938 37.933594 Z M 3.710938 0.773438 " clip-rule="nonzero"/></clipPath><clipPath id="f7dfe8bdbe"><path d="M 23.261719 -81.707031 L 555.894531 15.429688 L 534.25 134.128906 L 1.613281 36.996094 Z M 23.261719 -81.707031 " clip-rule="nonzero"/></clipPath><clipPath id="7c3092826b"><path d="M 23.261719 -81.707031 L 555.894531 15.429688 L 534.25 134.128906 L 1.613281 36.996094 Z M 23.261719 -81.707031 " clip-rule="nonzero"/></clipPath></defs><g clip-path="url(#2213c9ded0)"><g clip-path="url(#970c2b00a1)"><g clip-path="url(#d4efb0cc18)"><path fill="#1f9a28" d="M 547.507812 25.96875 C 529.621094 21.929688 511.394531 20.195312 493.191406 18.34375 C 466.878906 15.667969 440.480469 14.390625 414.070312 13.46875 C 379.535156 12.25 344.992188 12.195312 310.449219 12.847656 C 236.386719 14.246094 162.582031 19.742188 88.945312 27.507812 C 64.132812 30.128906 39.371094 33.144531 14.582031 36.007812 C 13.78125 36.101562 12.941406 36.339844 12.222656 36.699219 C 9.160156 38.21875 6.257812 37.492188 4.898438 34.789062 C 3.464844 31.957031 4.660156 28.3125 7.582031 27.007812 C 8.773438 26.476562 10.101562 26.199219 11.398438 25.992188 C 54.320312 19.152344 97.523438 14.648438 140.816406 11.117188 C 175.726562 8.265625 210.671875 5.8125 245.628906 3.75 C 282.480469 1.574219 319.390625 0.847656 356.304688 1.132812 C 378.480469 1.3125 400.664062 1.472656 422.816406 2.460938 C 447.609375 3.574219 472.394531 5.25 497.128906 7.378906 C 512.847656 8.726562 528.460938 11.296875 544.109375 13.425781 C 546.492188 13.75 548.882812 14.476562 551.113281 15.378906 C 554.09375 16.585938 555.394531 19.652344 554.421875 22.378906 C 553.421875 25.167969 550.570312 26.679688 547.519531 25.957031 Z M 547.507812 25.96875 " fill-opacity="1" fill-rule="nonzero"/></g></g></g><g clip-path="url(#c148ba0616)"><g clip-path="url(#0da9d20052)"><g clip-path="url(#22ec70090b)"><path fill="#1f9a28" d="M 547.066406 25.828125 C 529.175781 21.789062 510.953125 20.054688 492.746094 18.203125 C 466.4375 15.519531 440.042969 14.25 413.628906 13.324219 C 379.09375 12.109375 344.550781 12.054688 310.003906 12.703125 C 235.941406 14.105469 162.136719 19.597656 88.5 27.363281 C 63.691406 29.984375 38.925781 33.003906 14.140625 35.863281 C 13.335938 35.960938 12.503906 36.195312 11.78125 36.554688 C 8.714844 38.074219 5.8125 37.351562 4.453125 34.648438 C 3.027344 31.816406 4.222656 28.171875 7.144531 26.867188 C 8.328125 26.335938 9.65625 26.058594 10.953125 25.847656 C 53.875 19.011719 97.082031 14.503906 140.375 10.972656 C 175.28125 8.125 210.226562 5.671875 245.1875 3.609375 C 282.039062 1.433594 318.949219 0.707031 355.863281 0.992188 C 378.039062 1.167969 400.222656 1.328125 422.375 2.320312 C 447.167969 3.429688 471.957031 5.109375 496.6875 7.238281 C 512.402344 8.585938 528.019531 11.15625 543.664062 13.285156 C 546.046875 13.609375 548.4375 14.332031 550.671875 15.238281 C 553.652344 16.441406 554.949219 19.511719 553.980469 22.238281 C 552.984375 25.019531 550.128906 26.53125 547.074219 25.816406 Z M 547.066406 25.828125 " fill-opacity="1" fill-rule="nonzero"/></g></g></g><g clip-path="url(#95ac5bc30c)"><g clip-path="url(#e35678aec3)"><g clip-path="url(#7d8d004c28)"><path fill="#1f9a28" d="M 547.507812 25.96875 C 529.621094 21.929688 511.394531 20.195312 493.191406 18.34375 C 466.878906 15.667969 440.480469 14.390625 414.070312 13.46875 C 379.535156 12.25 344.992188 12.195312 310.449219 12.847656 C 236.386719 14.246094 162.582031 19.742188 88.945312 27.507812 C 64.132812 30.128906 39.371094 33.144531 14.582031 36.007812 C 13.78125 36.101562 12.941406 36.339844 12.222656 36.699219 C 9.160156 38.21875 6.257812 37.492188 4.898438 34.789062 C 3.464844 31.957031 4.660156 28.3125 7.582031 27.007812 C 8.773438 26.476562 10.101562 26.199219 11.398438 25.992188 C 54.320312 19.152344 97.523438 14.648438 140.816406 11.117188 C 175.726562 8.265625 210.671875 5.8125 245.628906 3.75 C 282.480469 1.574219 319.390625 0.847656 356.304688 1.132812 C 378.480469 1.3125 400.664062 1.472656 422.816406 2.460938 C 447.609375 3.574219 472.394531 5.25 497.128906 7.378906 C 512.847656 8.726562 528.460938 11.296875 544.109375 13.425781 C 546.492188 13.75 548.882812 14.476562 551.113281 15.378906 C 554.09375 16.585938 555.394531 19.652344 554.421875 22.378906 C 553.421875 25.167969 550.570312 26.679688 547.519531 25.957031 Z M 547.507812 25.96875 " fill-opacity="1" fill-rule="nonzero"/></g></g></g><g clip-path="url(#f93bf4948c)"><g clip-path="url(#f7dfe8bdbe)"><g clip-path="url(#7c3092826b)"><path fill="#1f9a28" d="M 547.066406 25.828125 C 529.175781 21.789062 510.953125 20.054688 492.746094 18.203125 C 466.4375 15.519531 440.042969 14.25 413.628906 13.324219 C 379.09375 12.109375 344.550781 12.054688 310.003906 12.703125 C 235.941406 14.105469 162.136719 19.597656 88.5 27.363281 C 63.691406 29.984375 38.925781 33.003906 14.140625 35.863281 C 13.335938 35.960938 12.503906 36.195312 11.78125 36.554688 C 8.714844 38.074219 5.8125 37.351562 4.453125 34.648438 C 3.027344 31.816406 4.222656 28.171875 7.144531 26.867188 C 8.328125 26.335938 9.65625 26.058594 10.953125 25.847656 C 53.875 19.011719 97.082031 14.503906 140.375 10.972656 C 175.28125 8.125 210.226562 5.671875 245.1875 3.609375 C 282.039062 1.433594 318.949219 0.707031 355.863281 0.992188 C 378.039062 1.167969 400.222656 1.328125 422.375 2.320312 C 447.167969 3.429688 471.957031 5.109375 496.6875 7.238281 C 512.402344 8.585938 528.019531 11.15625 543.664062 13.285156 C 546.046875 13.609375 548.4375 14.332031 550.671875 15.238281 C 553.652344 16.441406 554.949219 19.511719 553.980469 22.238281 C 552.984375 25.019531 550.128906 26.53125 547.074219 25.816406 Z M 547.066406 25.828125 " fill-opacity="1" fill-rule="nonzero"/></g></g></g></svg>