<svg xmlns="http://www.w3.org/2000/svg" xmlns:xlink="http://www.w3.org/1999/xlink" width="702" zoomAndPan="magnify" viewBox="0 0 526.5 36.000001" height="48" preserveAspectRatio="xMidYMid meet" version="1.0"><defs><filter x="0%" y="0%" width="100%" height="100%" id="ce383b94d6"><feColorMatrix values="0 0 0 0 1 0 0 0 0 1 0 0 0 0 1 0 0 0 1 0" color-interpolation-filters="sRGB"/></filter><clipPath id="07427ddb8e"><path d="M 8 2 L 519 2 L 519 35.027344 L 8 35.027344 Z M 8 2 " clip-rule="nonzero"/></clipPath><mask id="cc7100c221"><g filter="url(#ce383b94d6)"><rect x="-52.65" width="631.8" fill="#000000" y="-3.6" height="43.200001" fill-opacity="0.3"/></g></mask><clipPath id="dad068f0c3"><rect x="0" width="511" y="0" height="34"/></clipPath><clipPath id="564b12c13e"><path d="M 11 10 L 514 10 L 514 32.835938 L 11 32.835938 Z M 11 10 " clip-rule="nonzero"/></clipPath></defs><g clip-path="url(#07427ddb8e)"><g mask="url(#cc7100c221)"><g transform="matrix(1, 0, 0, 1, 8, 2)"><g clip-path="url(#dad068f0c3)"><path fill="#000000" d="M 506.390625 28.078125 C 507.058594 27.710938 506.992188 26.726562 506.25 26.566406 C 382.644531 0.183594 68.746094 11.261719 5.761719 23.710938 C 3.769531 24.105469 3.882812 26.644531 5.835938 27.210938 L 20.628906 31.507812 C 25.636719 32.960938 30.894531 33.0625 36.019531 32.113281 C 119.269531 16.660156 412.714844 10.515625 503.675781 28.527344 C 504.628906 28.714844 505.539062 28.550781 506.390625 28.078125 Z M 506.390625 28.078125 " fill-opacity="1" fill-rule="nonzero"/></g></g></g></g><g clip-path="url(#564b12c13e)"><path fill="#1f9a28" d="M 513.21875 27.671875 C 513.886719 27.304688 513.820312 26.328125 513.078125 26.171875 C 389.472656 0.0078125 75.574219 10.996094 12.589844 23.339844 C 10.597656 23.730469 10.710938 26.246094 12.664062 26.808594 L 27.460938 31.070312 C 32.464844 32.511719 37.726562 32.613281 42.847656 31.671875 C 126.097656 16.347656 419.542969 10.253906 510.503906 28.113281 C 511.457031 28.300781 512.367188 28.136719 513.21875 27.671875 Z M 513.21875 27.671875 " fill-opacity="1" fill-rule="nonzero"/></g></svg>