<svg xmlns="http://www.w3.org/2000/svg" xmlns:xlink="http://www.w3.org/1999/xlink" width="700" zoomAndPan="magnify" viewBox="0 0 525 33.749998" height="45" preserveAspectRatio="xMidYMid meet" version="1.0"><defs><clipPath id="f531a7d60f"><path d="M 6 10 L 519 10 L 519 33.5 L 6 33.5 Z M 6 10 " clip-rule="nonzero"/></clipPath></defs><g clip-path="url(#f531a7d60f)"><path fill="#000000" d="M 518.515625 28.46875 C 519.195312 28.09375 519.128906 27.085938 518.371094 26.925781 C 392.269531 0.0078125 72.023438 11.3125 7.765625 24.011719 C 5.730469 24.414062 5.847656 27.003906 7.839844 27.582031 L 22.933594 31.964844 C 28.042969 33.445312 33.40625 33.550781 38.636719 32.582031 C 123.570312 16.816406 422.945312 10.546875 515.746094 28.921875 C 516.71875 29.113281 517.648438 28.945312 518.515625 28.46875 Z M 518.515625 28.46875 " fill-opacity="1" fill-rule="nonzero"/></g><path fill="#1f9a28" d="M 518.515625 28.230469 C 519.195312 27.859375 519.128906 26.859375 518.371094 26.699219 C 392.269531 0.0078125 72.023438 11.214844 7.765625 23.808594 C 5.730469 24.207031 5.847656 26.777344 7.839844 27.351562 L 22.933594 31.695312 C 28.042969 33.167969 33.40625 33.273438 38.636719 32.3125 C 123.570312 16.675781 422.945312 10.460938 515.746094 28.679688 C 516.71875 28.871094 517.648438 28.707031 518.515625 28.230469 Z M 518.515625 28.230469 " fill-opacity="1" fill-rule="nonzero"/></svg>