<svg xmlns="http://www.w3.org/2000/svg" xmlns:xlink="http://www.w3.org/1999/xlink" width="702" zoomAndPan="magnify" viewBox="0 0 526.5 184.499994" height="246" preserveAspectRatio="xMidYMid meet" version="1.0"><defs><clipPath id="bb7a44502b"><path d="M 376 73 L 524.828125 73 L 524.828125 182 L 376 182 Z M 376 73 " clip-rule="nonzero"/></clipPath></defs><path fill="#f9fafb" d="M 212.96875 69.4375 L 216.292969 69.4375 L 216.292969 72.351562 L 215.046875 78.171875 L 220.867188 81.082031 L 223.363281 83.160156 L 222.945312 84.824219 L 217.957031 84.824219 L 215.046875 83.992188 L 213.382812 83.992188 L 207.976562 97.714844 L 203.402344 108.941406 L 197.582031 124.742188 L 194.671875 133.890625 L 193.425781 139.710938 L 192.175781 154.261719 L 193.425781 156.757812 L 195.917969 156.757812 L 200.078125 154.261719 L 204.234375 150.9375 L 207.976562 146.363281 L 213.382812 140.125 L 217.957031 134.71875 L 221.699219 130.148438 L 227.105469 123.492188 L 231.679688 117.671875 L 235.421875 113.929688 L 239.164062 105.199219 L 242.488281 96.464844 L 243.738281 90.644531 L 243.738281 82.746094 L 241.65625 78.585938 L 242.90625 78.171875 L 251.222656 79.835938 L 255.378906 81.914062 L 257.457031 84.40625 L 258.289062 86.488281 L 258.289062 90.644531 L 255.792969 99.378906 L 250.804688 110.605469 L 244.566406 125.15625 L 246.648438 123.078125 L 251.636719 116.007812 L 258.289062 106.445312 L 264.109375 98.546875 L 269.515625 91.890625 L 274.507812 86.488281 L 279.078125 82.328125 L 284.070312 79.417969 L 287.8125 78.171875 L 293.21875 78.171875 L 297.375 79.835938 L 300.285156 83.160156 L 301.117188 88.566406 L 301.117188 92.308594 L 299.453125 98.546875 L 297.375 103.535156 L 295.296875 107.691406 L 293.632812 113.097656 L 288.644531 123.078125 L 286.5625 125.15625 L 284.070312 131.808594 L 279.078125 141.375 L 276.585938 147.195312 L 273.675781 156.34375 L 272.425781 165.90625 L 272.84375 170.894531 L 274.507812 175.054688 L 276.585938 176.300781 L 284.070312 175.46875 L 294.878906 172.144531 L 305.691406 167.984375 L 306.105469 168.816406 L 303.195312 172.144531 L 299.039062 175.886719 L 293.21875 179.628906 L 286.980469 181.289062 L 281.992188 181.289062 L 276.585938 179.210938 L 271.59375 176.714844 L 267.851562 172.558594 L 264.527344 165.90625 L 262.449219 160.085938 L 262.449219 151.769531 L 264.109375 144.699219 L 267.4375 135.96875 L 272.011719 126.402344 L 277 117.257812 L 283.238281 103.949219 L 286.980469 92.722656 L 287.394531 91.0625 L 287.394531 87.320312 L 286.980469 86.488281 L 284.484375 86.902344 L 280.328125 90.644531 L 274.507812 96.882812 L 270.765625 100.207031 L 267.851562 103.535156 L 264.941406 106.445312 L 259.953125 113.515625 L 256.625 118.089844 L 252.882812 123.078125 L 247.894531 130.976562 L 242.90625 138.460938 L 238.746094 145.945312 L 235.421875 151.769531 L 230.429688 158.003906 L 225.855469 159.667969 L 223.363281 159.667969 L 222.53125 158.003906 L 222.945312 152.601562 L 224.609375 145.945312 L 230.847656 128.066406 L 232.925781 121.414062 L 228.769531 128.898438 L 225.441406 134.304688 L 222.945312 139.292969 L 220.867188 144.285156 L 217.957031 150.105469 L 214.214844 155.09375 L 209.640625 160.085938 L 205.484375 163.410156 L 202.570312 163.828125 L 201.324219 162.996094 L 193.425781 160.914062 L 189.265625 158.421875 L 185.941406 155.09375 L 183.859375 150.9375 L 183.445312 149.6875 L 183.445312 141.375 L 184.277344 135.96875 L 179.285156 143.867188 L 175.960938 146.777344 L 175.128906 147.609375 L 175.542969 149.273438 L 170.554688 154.261719 L 165.980469 157.589844 L 162.65625 159.253906 L 156.417969 159.253906 L 151.429688 157.589844 L 146.855469 154.679688 L 143.527344 150.9375 L 141.863281 147.195312 L 141.449219 145.117188 L 141.449219 139.292969 L 142.695312 132.640625 L 145.191406 125.988281 L 148.519531 119.335938 L 151.429688 114.761719 L 157.25 106.445312 L 161.824219 100.625 L 166.8125 95.21875 L 168.890625 92.722656 L 173.464844 88.980469 L 178.457031 85.238281 L 185.941406 80.25 L 192.59375 76.921875 L 195.085938 76.09375 L 206.730469 76.09375 L 210.472656 71.101562 Z M 200.492188 81.496094 L 195.917969 83.160156 L 190.097656 86.902344 L 185.941406 90.230469 L 181.78125 93.972656 L 177.207031 97.714844 L 174.296875 101.457031 L 171.386719 104.367188 L 168.890625 107.691406 L 165.566406 113.929688 L 162.65625 118.503906 L 157.664062 127.234375 L 156.003906 131.808594 L 155.585938 137.214844 L 154.339844 143.867188 L 155.171875 148.027344 L 156.003906 148.859375 L 158.496094 148.859375 L 164.316406 145.945312 L 168.058594 143.035156 L 172.21875 139.292969 L 177.207031 133.890625 L 180.535156 129.730469 L 184.277344 124.742188 L 189.683594 114.347656 L 195.085938 102.703125 L 200.492188 91.476562 L 204.234375 82.746094 L 204.234375 81.496094 Z M 233.757812 118.917969 L 234.171875 119.75 Z M 233.339844 119.75 L 233.757812 120.582031 Z M 233.339844 119.75 " fill-opacity="1" fill-rule="nonzero"/><g clip-path="url(#bb7a44502b)"><path fill="#f9fafb" d="M 420.867188 73.597656 L 423.78125 73.597656 L 435.421875 78.171875 L 437.5 79.835938 L 438.332031 81.914062 L 438.332031 87.320312 L 437.5 91.476562 L 434.175781 99.792969 L 430.015625 107.277344 L 425.441406 112.265625 L 421.285156 116.007812 L 415.464844 119.75 L 413.382812 121 L 410.472656 121 L 398.832031 116.425781 L 397.582031 117.671875 L 392.179688 133.058594 L 390.097656 142.621094 L 390.929688 147.609375 L 393.425781 153.847656 L 393.839844 154.261719 L 398 153.847656 L 407.148438 151.351562 L 415.046875 148.441406 L 423.78125 143.867188 L 428.351562 140.542969 L 434.175781 135.550781 L 439.996094 130.148438 L 444.570312 126.402344 L 452.46875 118.503906 L 454.550781 113.929688 L 460.785156 97.714844 L 462.035156 92.722656 L 462.449219 89.8125 L 462.449219 83.160156 L 460.371094 78.585938 L 461.617188 78.171875 L 469.933594 79.835938 L 474.09375 81.914062 L 476.171875 84.40625 L 477.003906 86.488281 L 477.003906 90.644531 L 474.507812 99.378906 L 468.269531 113.515625 L 463.695312 124.742188 L 465.777344 122.660156 L 470.347656 116.007812 L 476.171875 107.691406 L 481.578125 100.207031 L 486.148438 94.386719 L 491.140625 88.566406 L 494.882812 84.824219 L 499.039062 81.496094 L 504.03125 79.003906 L 506.523438 78.171875 L 511.929688 78.171875 L 516.089844 79.835938 L 519 83.160156 L 519.832031 87.734375 L 519.832031 92.308594 L 518.167969 98.960938 L 514.839844 105.613281 L 514.007812 107.691406 L 513.175781 111.019531 L 509.019531 120.167969 L 507.355469 123.078125 L 505.277344 125.15625 L 501.949219 133.472656 L 497.792969 141.375 L 495.296875 147.195312 L 492.386719 156.757812 L 491.554688 162.164062 L 491.554688 170.894531 L 493.21875 175.054688 L 495.296875 176.300781 L 502.78125 175.46875 L 513.59375 172.144531 L 524.402344 167.984375 L 524.820312 169.648438 L 520.246094 173.804688 L 514.839844 177.964844 L 510.683594 180.042969 L 505.691406 181.289062 L 500.703125 181.289062 L 494.464844 178.796875 L 490.308594 176.714844 L 486.980469 172.972656 L 483.238281 165.90625 L 481.160156 160.5 L 481.160156 150.9375 L 483.65625 142.203125 L 487.398438 133.472656 L 490.722656 126.402344 L 495.714844 117.257812 L 500.703125 106.863281 L 504.03125 98.128906 L 506.109375 91.0625 L 506.109375 87.320312 L 505.691406 86.488281 L 503.199219 86.902344 L 498.207031 91.476562 L 494.464844 95.636719 L 485.320312 104.78125 L 482.824219 107.691406 L 477.003906 116.007812 L 472.429688 121.832031 L 467.855469 129.316406 L 463.695312 135.136719 L 457.875 145.117188 L 454.132812 151.769531 L 449.558594 157.589844 L 447.480469 158.835938 L 442.90625 160.085938 L 441.660156 159.253906 L 441.242188 155.511719 L 442.90625 147.195312 L 447.066406 135.550781 L 450.808594 123.910156 L 443.324219 132.226562 L 439.582031 138.046875 L 435.839844 145.117188 L 432.511719 150.519531 L 430.433594 153.015625 L 424.195312 156.757812 L 415.464844 161.332031 L 406.316406 165.488281 L 403.40625 165.90625 L 398.414062 164.242188 L 391.347656 160.5 L 388.4375 157.589844 L 382.613281 154.261719 L 379.703125 151.769531 L 378.042969 148.859375 L 376.792969 143.035156 L 376.792969 135.550781 L 378.457031 127.652344 L 381.367188 119.75 L 385.109375 112.683594 L 390.097656 105.199219 L 394.257812 99.792969 L 400.078125 92.722656 L 403.820312 88.148438 L 408.394531 82.746094 L 413.382812 79.003906 L 419.207031 74.84375 Z M 425.441406 81.082031 L 422.117188 83.578125 L 415.464844 90.230469 L 412.554688 93.554688 L 407.5625 99.792969 L 403.820312 105.199219 L 400.496094 111.019531 L 400.078125 112.265625 L 402.15625 112.683594 L 407.980469 110.605469 L 411.722656 108.523438 L 419.207031 103.121094 L 422.53125 100.207031 L 426.691406 94.804688 L 428.769531 90.230469 L 429.601562 86.902344 L 429.601562 83.992188 L 428.351562 81.914062 L 427.105469 81.082031 Z M 425.441406 81.082031 " fill-opacity="1" fill-rule="nonzero"/></g><path fill="#f9fafb" d="M 175.960938 12.472656 L 191.34375 12.472656 L 200.492188 13.304688 L 208.808594 15.382812 L 213.382812 17.878906 L 216.710938 21.207031 L 219.621094 27.027344 L 220.453125 30.355469 L 220.035156 34.511719 L 217.957031 38.667969 L 215.046875 41.582031 L 210.886719 44.074219 L 202.570312 47.402344 L 197.582031 48.648438 L 192.59375 49.066406 L 191.34375 49.894531 L 186.355469 49.480469 L 170.140625 47.402344 L 158.496094 45.738281 L 154.753906 44.074219 L 152.675781 43.242188 L 146.855469 42.828125 L 144.777344 41.582031 L 142.695312 41.996094 L 139.371094 45.738281 L 133.546875 54.46875 L 131.054688 56.550781 L 128.144531 60.292969 L 126.480469 63.203125 L 124.816406 65.695312 L 122.320312 69.023438 L 114.835938 83.578125 L 108.601562 94.804688 L 104.027344 103.949219 L 101.949219 107.277344 L 99.867188 112.683594 L 97.789062 116.007812 L 95.710938 118.917969 L 89.890625 132.640625 L 84.898438 142.621094 L 82.40625 145.53125 L 79.910156 151.351562 L 74.089844 165.488281 L 69.515625 175.054688 L 68.265625 176.300781 L 67.019531 175.886719 L 66.605469 175.054688 L 66.605469 170.894531 L 68.265625 166.738281 L 67.851562 158.835938 L 70.347656 152.183594 L 72.839844 144.699219 L 76.167969 140.542969 L 77 138.460938 L 77.832031 134.304688 L 80.742188 127.234375 L 85.730469 115.175781 L 88.226562 108.523438 L 93.214844 100.207031 L 96.542969 92.722656 L 97.789062 89.8125 L 100.285156 86.902344 L 101.949219 83.160156 L 102.777344 79.003906 L 109.433594 66.945312 L 114.421875 58.628906 L 120.660156 48.648438 L 124.816406 42.828125 L 128.976562 37.421875 L 128.976562 36.175781 L 115.253906 33.679688 L 103.609375 32.015625 L 97.789062 31.601562 L 86.148438 31.601562 L 77.832031 32.433594 L 74.089844 31.601562 L 71.179688 32.847656 L 69.515625 32.433594 L 67.019531 31.601562 L 63.277344 32.847656 L 54.128906 33.679688 L 46.644531 35.757812 L 40.410156 38.253906 L 36.667969 40.332031 L 33.339844 40.332031 L 27.933594 44.074219 L 25.441406 45.738281 L 20.449219 53.222656 L 17.125 59.460938 L 16.292969 61.953125 L 16.292969 69.855469 L 17.957031 75.261719 L 20.867188 80.25 L 23.777344 83.160156 L 29.597656 86.902344 L 35.835938 89.8125 L 47.894531 93.554688 L 48.726562 95.21875 L 48.308594 95.636719 L 44.152344 95.636719 L 29.597656 93.140625 L 21.28125 90.644531 L 16.707031 88.566406 L 12.132812 86.070312 L 8.390625 83.160156 L 5.066406 78.585938 L 2.570312 73.597656 L 2.570312 63.617188 L 5.066406 56.550781 L 8.390625 49.894531 L 12.132812 44.492188 L 15.875 40.332031 L 19.617188 37.421875 L 27.519531 33.265625 L 37.914062 29.523438 L 42.902344 28.273438 L 48.308594 26.195312 L 58.703125 24.117188 L 68.265625 23.285156 L 91.550781 23.285156 L 103.609375 24.117188 L 119.410156 26.613281 L 132.71875 29.9375 L 135.210938 29.9375 L 140.203125 26.195312 L 150.179688 20.789062 L 159.328125 17.046875 L 164.734375 15.800781 L 166.8125 13.722656 L 170.972656 12.890625 Z M 194.257812 19.542969 L 183.445312 21.621094 L 168.476562 25.78125 L 160.574219 29.105469 L 153.921875 32.433594 L 151.011719 34.511719 L 151.84375 35.34375 L 159.746094 37.421875 L 172.632812 39.917969 L 185.941406 41.996094 L 193.007812 43.242188 L 201.324219 43.242188 L 207.144531 41.582031 L 211.71875 39.085938 L 215.046875 35.757812 L 216.292969 32.847656 L 216.292969 28.273438 L 215.046875 24.949219 L 212.136719 21.621094 L 207.5625 19.957031 L 205.066406 19.542969 Z M 194.257812 19.542969 " fill-opacity="1" fill-rule="nonzero"/><path fill="#f9fafb" d="M 376.378906 73.597656 L 377.210938 73.597656 L 376.792969 76.507812 L 373.46875 82.746094 L 368.894531 89.398438 L 364.734375 94.386719 L 362.242188 97.714844 L 358.082031 100.207031 L 353.09375 105.199219 L 348.519531 108.941406 L 343.945312 113.097656 L 340.617188 116.007812 L 337.292969 119.335938 L 332.304688 123.078125 L 328.144531 126.820312 L 324.816406 129.730469 L 317.75 135.136719 L 313.589844 138.878906 L 311.929688 140.542969 L 319.828125 146.363281 L 325.234375 149.6875 L 336.460938 155.511719 L 340.617188 156.757812 L 343.53125 157.171875 L 351.84375 157.171875 L 366.816406 153.847656 L 374.714844 151.351562 L 377.210938 150.105469 L 377.210938 152.601562 L 374.714844 156.34375 L 369.726562 161.746094 L 363.902344 165.074219 L 358.914062 170.0625 L 357.667969 170.480469 L 348.101562 170.480469 L 336.046875 168.402344 L 328.144531 165.488281 L 324.816406 163.410156 L 319.414062 158.835938 L 316.085938 155.925781 L 311.097656 150.519531 L 309.847656 149.273438 L 306.523438 147.609375 L 304.445312 145.945312 L 300.703125 144.699219 L 298.207031 140.957031 L 296.128906 136.382812 L 295.710938 134.71875 L 296.128906 134.304688 L 298.621094 134.304688 L 300.285156 134.71875 L 304.859375 131.808594 L 310.265625 128.484375 L 317.332031 124.324219 L 323.570312 120.167969 L 328.976562 115.59375 L 333.132812 111.851562 L 336.875 108.941406 L 338.125 108.523438 L 338.957031 106.863281 L 343.113281 103.535156 L 348.101562 100.207031 L 347.273438 99.378906 L 336.046875 97.714844 L 327.730469 95.636719 L 323.15625 93.554688 L 320.660156 91.890625 L 317.332031 88.148438 L 314.839844 83.160156 L 315.253906 81.914062 L 318.996094 83.160156 L 325.234375 85.65625 L 330.640625 86.902344 L 338.125 86.902344 L 345.191406 86.070312 L 349.765625 84.40625 L 354.757812 82.328125 L 363.902344 80.25 L 369.308594 76.921875 Z M 376.378906 73.597656 " fill-opacity="1" fill-rule="nonzero"/><path fill="#f9fafb" d="M 283.570312 5.863281 L 285.46875 6.035156 L 289.609375 7.417969 L 293.574219 9.484375 L 295.644531 11.039062 L 296.851562 12.246094 L 298.921875 15.351562 L 300.472656 18.625 L 301.164062 21.214844 L 301.507812 25.007812 L 301.335938 27.25 L 300.820312 28.976562 L 300.820312 30.871094 L 299.613281 35.355469 L 298.058594 39.324219 L 295.988281 45.015625 L 294.78125 47.085938 L 293.746094 50.015625 L 293.230469 51.742188 L 292.195312 53.464844 L 290.988281 55.878906 L 289.089844 58.984375 L 287.882812 60.539062 L 285.8125 62.78125 L 284.605469 64.160156 L 283.398438 66.402344 L 281.675781 68.296875 L 280.46875 69.851562 L 278.398438 71.402344 L 275.8125 73.472656 L 273.394531 74.851562 L 270.636719 75.714844 L 269.601562 75.886719 L 267.703125 75.886719 L 264.425781 75.371094 L 262.875 74.851562 L 261.152344 73.300781 L 259.597656 71.574219 L 258.046875 68.988281 L 257.183594 66.230469 L 256.492188 61.917969 L 256.320312 58.8125 L 256.667969 57.433594 L 257.011719 55.191406 L 258.046875 51.570312 L 259.082031 47.085938 L 259.769531 44.324219 L 260.632812 41.21875 L 260.976562 39.324219 L 260.804688 37.425781 L 260.632812 37.082031 L 259.597656 37.082031 L 257.875 38.632812 L 256.148438 40.359375 L 254.078125 43.289062 L 252.871094 45.015625 L 250.976562 48.980469 L 249.769531 51.222656 L 248.214844 52.949219 L 247.699219 53.984375 L 247.179688 56.226562 L 245.800781 58.640625 L 243.558594 62.089844 L 242.179688 63.988281 L 239.765625 66.402344 L 239.246094 66.746094 L 236.140625 66.746094 L 234.933594 66.230469 L 233.898438 65.539062 L 232.175781 65.367188 L 231.3125 64.503906 L 230.449219 62.261719 L 230.105469 59.847656 L 230.105469 57.085938 L 230.625 54.5 L 233.898438 43.636719 L 235.28125 40.011719 L 239.246094 32.078125 L 240.625 29.492188 L 242.179688 27.078125 L 243.902344 24.492188 L 245.285156 22.765625 L 246.835938 20.867188 L 248.558594 18.972656 L 249.078125 18.28125 L 249.421875 18.28125 L 249.421875 17.9375 L 250.800781 16.730469 L 252.699219 15.175781 L 254.597656 13.96875 L 255.976562 13.109375 L 250.113281 13.28125 L 246.144531 13.796875 L 242.695312 14.488281 L 239.074219 15.695312 L 233.382812 18.109375 L 232.867188 18.109375 L 233.039062 17.246094 L 234.417969 16.210938 L 238.039062 13.96875 L 241.316406 12.417969 L 243.902344 11.554688 L 247.871094 10.691406 L 253.042969 10.003906 L 254.769531 9.832031 L 258.734375 9.832031 L 260.460938 10.175781 L 261.324219 10.691406 L 261.667969 11.554688 L 261.496094 12.417969 L 260.117188 13.453125 L 257.183594 15.003906 L 255.285156 16.382812 L 253.21875 18.28125 L 252.011719 19.835938 L 249.769531 23.457031 L 249.078125 24.320312 L 247.871094 26.734375 L 246.492188 29.148438 L 245.109375 31.90625 L 242.695312 36.5625 L 240.625 41.046875 L 239.417969 44.324219 L 238.382812 46.566406 L 237.175781 51.394531 L 236.140625 55.019531 L 234.933594 60.882812 L 234.933594 62.261719 L 235.625 63.988281 L 236.316406 64.675781 L 237.003906 64.332031 L 238.730469 62.605469 L 239.765625 60.882812 L 241.835938 58.121094 L 243.558594 55.019531 L 244.765625 53.121094 L 246.316406 50.363281 L 247.527344 48.636719 L 249.59375 45.53125 L 251.320312 42.082031 L 252.871094 39.839844 L 254.425781 38.117188 L 255.632812 36.734375 L 257.183594 35.355469 L 257.875 35.011719 L 260.117188 35.011719 L 261.839844 35.703125 L 264.425781 37.597656 L 265.117188 38.632812 L 265.289062 39.839844 L 265.289062 43.289062 L 264.773438 47.257812 L 264.082031 50.363281 L 263.910156 51.050781 L 263.738281 53.464844 L 263.21875 54.15625 L 262.703125 58.121094 L 262.183594 59.847656 L 262.183594 65.195312 L 262.703125 67.953125 L 264.082031 70.714844 L 265.460938 72.265625 L 266.667969 72.957031 L 267.703125 72.957031 L 270.464844 71.402344 L 272.535156 69.851562 L 274.257812 68.296875 L 275.121094 67.4375 L 275.464844 67.4375 L 275.636719 66.917969 L 277.019531 65.710938 L 279.433594 63.125 L 280.984375 61.226562 L 285.46875 54.5 L 287.019531 51.914062 L 288.917969 47.773438 L 291.160156 42.253906 L 292.195312 38.804688 L 293.402344 33.632812 L 294.09375 30.183594 L 294.609375 25.351562 L 294.609375 20.351562 L 293.746094 17.074219 L 292.886719 15.003906 L 291.503906 12.417969 L 290.472656 11.210938 L 288.574219 9.660156 L 285.296875 7.242188 L 283.570312 6.035156 Z M 283.570312 5.863281 " fill-opacity="1" fill-rule="nonzero"/><path fill="#f9fafb" d="M 340.316406 30.871094 L 342.730469 31.042969 L 345.488281 32.078125 L 347.214844 32.941406 L 348.074219 33.804688 L 348.765625 34.839844 L 348.9375 35.355469 L 348.9375 37.945312 L 348.421875 40.011719 L 347.386719 41.738281 L 345.660156 43.808594 L 344.28125 45.703125 L 343.417969 46.222656 L 342.558594 46.394531 L 340.140625 46.222656 L 339.625 45.878906 L 339.96875 44.84375 L 341.867188 41.394531 L 343.765625 37.253906 L 344.800781 34.667969 L 344.972656 33.632812 L 342.902344 33.976562 L 341.175781 34.839844 L 339.453125 36.390625 L 338.074219 37.769531 L 336.867188 39.152344 L 335.3125 41.046875 L 332.726562 44.84375 L 328.585938 50.707031 L 326.691406 53.984375 L 325.65625 56.914062 L 323.238281 63.125 L 322.722656 65.019531 L 322.378906 67.261719 L 322.207031 67.4375 L 320.480469 67.4375 L 319.101562 66.917969 L 318.238281 66.230469 L 317.722656 65.195312 L 317.722656 63.640625 L 319.273438 58.46875 L 320.308594 55.878906 L 321.515625 51.914062 L 321.515625 51.570312 L 319.273438 55.019531 L 317.722656 57.777344 L 316.6875 59.675781 L 314.273438 63.46875 L 313.0625 65.710938 L 311.683594 66.917969 L 309.960938 67.609375 L 307.199219 68.125 L 305.648438 68.125 L 303.921875 67.4375 L 302.199219 66.230469 L 300.820312 64.847656 L 299.613281 62.953125 L 299.265625 62.089844 L 299.265625 59.675781 L 299.957031 56.226562 L 301.335938 52.085938 L 302.542969 49.5 L 305.992188 40.011719 L 307.199219 35.703125 L 307.890625 33.285156 L 308.234375 32.941406 L 309.613281 33.113281 L 311.339844 34.320312 L 312.546875 35.703125 L 313.0625 36.734375 L 312.890625 38.289062 L 311.683594 41.21875 L 310.304688 44.152344 L 308.582031 48.464844 L 306.511719 52.777344 L 305.128906 57.085938 L 304.097656 59.15625 L 303.578125 60.539062 L 302.886719 61.226562 L 302.542969 61.226562 L 302.542969 64.332031 L 302.714844 65.195312 L 305.304688 64.675781 L 308.0625 63.46875 L 309.789062 62.433594 L 311.683594 60.882812 L 314.789062 57.777344 L 316.339844 55.878906 L 318.066406 53.984375 L 319.617188 52.085938 L 321.515625 49.84375 L 322.894531 48.121094 L 323.929688 45.703125 L 325.828125 39.839844 L 326 38.117188 L 326 36.21875 L 326.34375 35.355469 L 326.171875 34.148438 L 325.136719 32.597656 L 324.792969 31.734375 L 326.515625 31.90625 L 329.105469 32.941406 L 331 34.148438 L 331.519531 34.839844 L 331.691406 35.527344 L 331.691406 37.945312 L 331.171875 40.53125 L 330.140625 43.636719 L 332.726562 38.976562 L 334.277344 36.21875 L 335.65625 33.976562 L 337.039062 32.425781 L 338.761719 31.390625 Z M 321.6875 51.050781 L 321.859375 51.394531 Z M 321.6875 51.050781 " fill-opacity="1" fill-rule="nonzero"/><path fill="#f9fafb" d="M 315.824219 13.625 L 316.859375 14.144531 L 318.757812 15.867188 L 319.445312 16.902344 L 319.617188 17.9375 L 318.929688 19.660156 L 317.546875 21.902344 L 316.859375 22.765625 L 315.480469 23.457031 L 313.753906 23.285156 L 312.890625 23.109375 L 312.203125 23.457031 L 311.511719 23.285156 L 311.339844 23.109375 L 311.339844 19.835938 L 311.855469 17.9375 L 312.71875 16.210938 L 314.273438 14.488281 L 315.304688 13.796875 Z M 315.824219 13.625 " fill-opacity="1" fill-rule="nonzero"/></svg>